<?xml version="1.0" encoding="UTF-8"?>
<svg width="800" height="800" version="1.1" viewBox="0 0 800.00001 800.00001" xmlns="http://www.w3.org/2000/svg">
 <path d="m0 215.27v33.058h150.93v126l80.235 299.45h0.13774v0.3917h488.32v-0.3917h0.13774l80.235-299.45v-33.058h-616.01v-126h-183.99zm185.16 159.05h11.166l10.71 18.548-11.545 20.003-10.331-38.551zm23.894 0h8.695l-4.3475 7.5285-4.3475-7.5285zm21.419 0h31.974l10.705 18.548-26.692 46.243-26.696-46.243 10.71-18.548zm44.698 0h8.695l-4.3475 7.5285-4.3475-7.5285zm21.419 0h31.974l10.705 18.548-26.692 46.243-26.696-46.243 10.71-18.548zm44.698 0h8.695l-4.3475 7.5285-4.3475-7.5285zm21.419 0h31.974l10.705 18.548-26.692 46.243-26.696-46.243 10.71-18.548zm44.698 0h8.695l-4.3475 7.5285-4.3475-7.5285zm21.419 0h31.974l10.705 18.548-26.692 46.243-26.696-46.243 10.71-18.548zm44.698 0h8.695l-4.3475 7.5285-4.3475-7.5285zm21.419 0h31.974l10.705 18.548-26.692 46.243-26.696-46.243 10.71-18.548zm44.698 0h8.695l-4.3475 7.5285-4.3475-7.5285zm21.419 0h31.974l10.705 18.548-26.692 46.243-26.696-46.243 10.71-18.548zm44.698 0h8.695l-4.3475 7.5285-4.3475-7.5285zm21.419 0h31.974l10.705 18.548-26.692 46.243-26.696-46.243 10.71-18.548zm44.698 0h8.695l-4.3475 7.5285-4.3475-7.5285zm21.419 0h31.974l10.705 18.548-26.692 46.243-26.696-46.243 10.71-18.548zm44.698 0h8.695l-4.3475 7.5285-4.3475-7.5285zm21.419 0h6.3706l-8.807 32.878-8.2732-14.33 10.71-18.548zm-546.01 29.567 26.692 46.243-23.644 40.961-16.925-63.164 13.878-24.04zm66.117 0 26.692 46.243-26.692 46.239-26.696-46.239 26.696-46.243zm66.117 0 26.692 46.243-26.692 46.239-26.696-46.239 26.696-46.243zm66.117 0 26.692 46.243-26.692 46.239-26.696-46.239 26.696-46.243zm66.117 0 26.692 46.243-26.692 46.239-26.696-46.239 26.696-46.243zm66.117 0 26.692 46.243-26.692 46.239-26.696-46.239 26.696-46.243zm66.117 0 26.692 46.243-26.692 46.239-26.696-46.239 26.696-46.243zm66.117 0 26.692 46.243-26.692 46.239-26.696-46.239 26.696-46.243zm66.117 0 10.598 18.363-16.921 63.164-20.373-35.284 26.696-46.243zm-495.88 57.258 26.692 46.243-26.692 46.239-24.734-42.838-1.244-4.6445 25.978-44.999zm66.117 0 26.692 46.243-26.692 46.239-26.696-46.239 26.696-46.243zm66.117 0 26.692 46.243-26.692 46.239-26.696-46.239 26.696-46.243zm66.117 0 26.692 46.243-26.692 46.239-26.696-46.239 26.696-46.243zm66.117 0 26.692 46.243-26.692 46.239-26.696-46.239 26.696-46.243zm66.117 0 26.692 46.243-26.692 46.239-26.696-46.239 26.696-46.243zm66.117 0 26.692 46.243-26.692 46.239-26.696-46.239 26.696-46.243zm66.117 0 22.698 39.326-6.9173 25.818-15.78 27.338-26.696-46.239 26.696-46.243zm-429.76 57.262 26.692 46.239-26.692 46.239-26.696-46.239 26.696-46.239zm66.117 0 26.692 46.239-26.692 46.239-26.696-46.239 26.696-46.239zm66.117 0 26.692 46.239-26.692 46.239-26.696-46.239 26.696-46.239zm66.117 0 26.692 46.239-26.692 46.239-26.696-46.239 26.696-46.239zm66.117 0 26.692 46.239-26.692 46.239-26.696-46.239 26.696-46.239zm66.117 0 26.692 46.239-26.692 46.239-26.696-46.239 26.696-46.239zm66.117 0 26.692 46.239-26.692 46.239-26.696-46.239 26.696-46.239zm-443.47 33.515 7.3478 12.724-2.6903 4.6574-4.6574-17.381zm13.714 23.744 26.692 46.239-11.08 19.194h-5.428l-15.203-56.737 5.019-8.695zm66.117 0 26.692 46.239-11.08 19.194h-31.229l-11.08-19.194 26.696-46.239zm66.117 0 26.692 46.239-11.08 19.194h-31.229l-11.08-19.194 26.696-46.239zm66.117 0 26.692 46.239-11.08 19.194h-31.229l-11.08-19.194 26.696-46.239zm66.117 0 26.692 46.239-11.08 19.194h-31.229l-11.08-19.194 26.696-46.239zm66.117 0 26.692 46.239-11.08 19.194h-31.229l-11.08-19.194 26.696-46.239zm66.117 0 26.692 46.239-11.075 19.194h-31.229l-11.084-19.194 26.696-46.239zm66.117 0 1.7433 3.0174-16.723 62.415h-0.63276l-11.084-19.194 26.696-46.239zm-429.76 57.258 4.7177 8.1742h-9.4397l4.722-8.1742zm66.117 0 4.7177 8.1742h-9.4354l4.7177-8.1742zm66.117 0 4.7177 8.1742h-9.4354l4.7177-8.1742zm66.117 0 4.7177 8.1742h-9.4354l4.7177-8.1742zm66.117 0 4.7177 8.1742h-9.4354l4.7177-8.1742zm66.117 0 4.7177 8.1742h-9.4397l4.722-8.1742zm66.117 0 4.7177 8.1742h-9.4354l4.7177-8.1742zm-320.6 56.875a55.097 55.097 0 0 0 -55.097 55.097 55.097 55.097 0 0 0 55.097 55.097 55.097 55.097 0 0 0 55.097 -55.097 55.097 55.097 0 0 0 -55.097 -55.097zm252.46 0a55.097 55.097 0 0 0 -55.097 55.097 55.097 55.097 0 0 0 55.097 55.097 55.097 55.097 0 0 0 55.097 -55.097 55.097 55.097 0 0 0 -55.097 -55.097z" color="#000000" color-rendering="auto" fill="#404040" image-rendering="auto" shape-rendering="auto" solid-color="#000000" style="isolation:auto;mix-blend-mode:normal"/>
</svg>
